<svg xmlns="http://www.w3.org/2000/svg" xmlns:xlink="http://www.w3.org/1999/xlink" viewBox="0,0,256,256" width="50px" height="50px" fill-rule="nonzero"><g fill="#ffffff" fill-rule="nonzero" stroke="none" stroke-width="1" stroke-linecap="butt" stroke-linejoin="miter" stroke-miterlimit="10" stroke-dasharray="" stroke-dashoffset="0" font-family="none" font-weight="none" font-size="none" text-anchor="none" style="mix-blend-mode: normal"><g transform="scale(10.66667,10.66667)"><path d="M10.5,3c-4.687,0 -8.5,3.14 -8.5,7c0,1.363 0.47123,2.66869 1.36523,3.80469l-0.44922,5.02148l3.63086,-2.62891c1.13941,0.493 2.39929,0.75584 3.6875,0.78906c0.72504,2.3196 3.07408,3.97461 5.76563,3.97461c0.85268,0 1.6025,-0.27199 2.32617,-0.56445l3.76953,1.55078l-0.70703,-4.36133c0.31266,-0.65042 0.61133,-1.32549 0.61133,-2.10547c0,-2.06798 -1.24599,-3.82929 -3.04687,-4.76367c0.02918,-0.23752 0.04688,-0.47581 0.04688,-0.7168c0,-3.86 -3.813,-7 -8.5,-7zM8.01758,6.75c0.691,0 1.25,0.55433 1.25,1.23633c0,0.682 -0.559,1.26367 -1.25,1.26367c-0.691,0 -1.25,-0.57967 -1.25,-1.26367c0,-0.683 0.559,-1.23633 1.25,-1.23633zM13.01367,6.75c0.682,0 1.23633,0.55433 1.23633,1.23633c0,0.684 -0.55333,1.26367 -1.23633,1.26367c-0.685,0 -1.26367,-0.57967 -1.26367,-1.26367c0,-0.683 0.57967,-1.23633 1.26367,-1.23633zM16,12c2.27663,0 4,1.60981 4,3.48047c0,0.56521 -0.17081,1.09544 -0.47656,1.60156l-0.18945,0.31445l0.05859,0.36328l0.1582,0.97656l-1.14844,-0.47266l-0.4082,0.20898c-0.60022,0.30507 -1.26942,0.48828 -1.99414,0.48828c-2.27663,0 -4,-1.60981 -4,-3.48047c0,-1.87066 1.72337,-3.48047 4,-3.48047zM14.02148,14c-0.552,0 -1.02148,0.447 -1.02148,1c0,0.553 0.47248,1 1.02148,1c0.549,0 0.99414,-0.447 0.99414,-1c0,-0.553 -0.44414,-1 -0.99414,-1zM17.99219,14c-0.5481,0.00045 -0.99219,0.44803 -0.99219,1c0,0.55197 0.44409,0.99955 0.99219,1c0.26356,0.0003 0.51642,-0.10492 0.70289,-0.29249c0.18647,-0.18757 0.29125,-0.4421 0.29125,-0.70751c0,-0.26542 -0.10478,-0.51994 -0.29125,-0.70751c-0.18647,-0.18757 -0.43934,-0.29279 -0.70289,-0.29249z"></path></g></g></svg>